# File produced by Open Asset Import Library (http://www.assimp.sf.net)
# (assimp v3.1.187496374)

mtllib player_rightback.obj.mtl

# 62 vertex positions
v  -0.208051 0.25 -0.454659
v  -0.208051 -0.25 -0.454659
v  -0.171897 0.25 -0.469522
v  -0.171897 -0.25 -0.469522
v  -0.134693 -0.25 -0.481516
v  -0.134693 0.25 -0.481516
v  -0.0966651 -0.25 -0.490567
v  -0.0966651 0.25 -0.490567
v  -0.0580466 -0.25 -0.496619
v  -0.0580466 0.25 -0.496619
v  -0.0190733 -0.25 -0.499636
v  -0.0190733 0.25 -0.499636
v  0.0200166 -0.25 -0.499599
v  0.0200166 0.25 -0.499599
v  0.0589841 -0.25 -0.496509
v  0.0589841 0.25 -0.496509
v  0.0975911 -0.25 -0.490384
v  0.0975911 0.25 -0.490384
v  0.135602 -0.25 -0.481261
v  0.135602 0.25 -0.481261
v  0.172783 -0.25 -0.469197
v  0.172783 0.25 -0.469197
v  0.208909 -0.25 -0.454265
v  0.208909 0.25 -0.454265
v  0.243758 -0.25 -0.436557
v  0.243758 0.25 -0.436557
v  0.277117 -0.25 -0.416181
v  0.277117 0.25 -0.416181
v  0.308782 -0.25 -0.39326
v  0.308782 0.25 -0.39326
v  0.33856 -0.25 -0.367937
v  0.33856 0.25 -0.367937
v  0.366268 -0.25 -0.340364
v  0.366268 0.25 -0.340364
v  0.391738 -0.25 -0.310711
v  0.391738 0.25 -0.310711
v  0.414814 -0.25 -0.279159
v  0.414814 0.25 -0.279159
v  0.435354 -0.25 -0.2459
v  0.435354 0.25 -0.2459
v  0.453233 -0.25 -0.211139
v  0.453233 0.25 -0.211139
v  0.468342 -0.25 -0.175087
v  0.468342 0.25 -0.175087
v  0.480589 -0.25 -0.137965
v  0.480589 0.25 -0.137965
v  0.489898 -0.25 -0.1
v  0.489898 0.25 -0.1
v  -0.865749 -0.25 -1.393
v  -0.865749 0.25 -1.393
v  0.5 -0.25 -2
v  0.5 0.25 -2
v  2.4 -0.25 -0.1
v  2.4 0.25 -0.1
v  2 -0.25 -2
v  1.5 -0.25 -2
v  2 0.25 -2
v  1.5 0.25 -2
v  2 -0.25 -1.5
v  2 0.25 -1.5
v  1.5 -0.25 -1.5
v  1.5 0.25 -1.5

# 0 UV coordinates

# 103 vertex normals
vn 0.380239 -2.05366e-16 0.924888
vn 0.380239 -3.0805e-16 0.924888
vn 0.306824 -3.17002e-16 0.951766
vn 0.306824 -2.10795e-16 0.951766
vn 0.231535 -2.16011e-16 0.972827
vn 0.231535 -3.24513e-16 0.972827
vn 0.15483 -3.2905e-16 0.987941
vn 0.15483 -2.20502e-16 0.987941
vn 0.0771789 -2.21382e-16 0.997017
vn 0.0771789 -3.3214e-16 0.997017
vn -0.000943965 -3.33067e-16 1
vn -0.000943965 -3.32855e-16 1
vn -0.0790611 -3.14469e-16 0.99687
vn -0.0790611 -2.21196e-16 0.99687
vn -0.156695 -2.19302e-16 0.987647
vn -0.156695 -3.68891e-16 0.987647
vn -0.233371 -3.82166e-16 0.972388
vn -0.233371 -2.16342e-16 0.972388
vn -0.308621 -2.11206e-16 0.951185
vn -0.308621 -3.16192e-16 0.951185
vn -0.381984 -3.0781e-16 0.924169
vn -0.381984 -2.05247e-16 0.924169
vn -0.453013 -1.97954e-16 0.891504
vn -0.453013 -1.997e-16 0.891504
vn -0.521273 -1.89491e-16 0.85339
vn -0.521273 -2.82909e-16 0.85339
vn -0.586347 -2.69804e-16 0.81006
vn -0.586347 -1.77511e-16 0.81006
vn -0.647837 -1.69149e-16 0.761779
vn -0.647837 -2.49625e-16 0.761779
vn -0.705367 -2.36092e-16 0.708842
vn -0.705367 -2.38531e-16 0.708842
vn -0.758586 -2.17017e-16 0.651573
vn -0.758586 -4.9925e-17 0.651573
vn -0.807169 -1.73888e-17 0.590321
vn -0.807169 -1.33133e-16 0.590321
vn -0.850818 -1.16676e-16 0.525461
vn -0.850818 -1.16492e-16 0.525461
vn -0.889267 -1.01561e-16 0.457389
vn -0.889267 -9.98501e-17 0.457389
vn -0.92228 -8.5825e-17 0.386522
vn -0.92228 -8.32084e-17 0.386522
vn -0.949657 -6.95648e-17 0.313292
vn -0.949657 -1.41454e-16 0.313292
vn -0.971229 -1.34268e-16 0.238147
vn -0.971229 -5.26987e-17 0.238147
vn -0.818879 0 0.573966
vn -0.406138 0 -0.913812
vn 0.707107 1.57009e-16 -0.707107
vn 0.707107 0 -0.707107
vn 6.53892e-17 -2.22045e-16 1
vn 0 1 0
vn -4.69624e-17 1 8.22616e-16
vn 1.48066e-17 1 -9.14449e-18
vn 1.49694e-17 1 -1.09478e-17
vn 1.51896e-17 1 -1.30468e-17
vn 1.5487e-17 1 -1.55633e-17
vn -1.52263e-16 1 1.27507e-15
vn 3.29234e-17 1 -4.5485e-17
vn -5.06584e-18 1 2.09581e-16
vn -1.18285e-16 1 1.93648e-16
vn -9.99298e-17 1 1.96656e-16
vn -8.26299e-17 1 1.99914e-16
vn -6.60162e-17 1 2.03465e-16
vn -4.97669e-17 1 2.07364e-16
vn -3.35837e-17 1 2.11678e-16
vn 1.97405e-17 1 2.27319e-16
vn -2.13936e-17 1 2.69749e-16
vn -2.34832e-19 1 2.48771e-16
vn 1.79251e-17 1 2.31561e-16
vn 3.40176e-17 1 2.1706e-16
vn 4.86856e-17 1 2.04559e-16
vn 6.23989e-17 1 1.93561e-16
vn 7.55226e-17 1 1.837e-16
vn 0 -1 0
vn 9.39247e-17 -1 -1.64523e-15
vn -2.96132e-17 -1 1.8289e-17
vn -2.99387e-17 -1 2.18956e-17
vn -3.03792e-17 -1 2.60936e-17
vn -3.0974e-17 -1 3.11266e-17
vn 3.04527e-16 -1 -2.55014e-15
vn -6.58469e-17 -1 9.097e-17
vn -2.05463e-17 -1 -2.13185e-16
vn 1.18285e-16 -1 -1.93648e-16
vn 9.99298e-17 -1 -1.96656e-16
vn 8.26299e-17 -1 -1.99914e-16
vn 6.60162e-17 -1 -2.03465e-16
vn 4.97669e-17 -1 -2.07364e-16
vn 3.35837e-17 -1 -2.11678e-16
vn 3.62873e-18 -1 -2.20465e-16
vn 1.87194e-17 -1 -2.36031e-16
vn 2.05478e-19 -1 -2.17675e-16
vn -1.56844e-17 -1 -2.02615e-16
vn -2.97654e-17 -1 -1.89927e-16
vn -4.25999e-17 -1 -1.7899e-16
vn -5.4599e-17 -1 -1.69366e-16
vn -6.60823e-17 -1 -1.60738e-16
vn 0 0 -1
vn 1 0 0
vn 0 0 1
vn -1 0 0
vn 0 1 1.11022e-16
vn 0 -1 -2.22045e-16

# Mesh '<STL_BINARY>' with 116 faces
g <STL_BINARY>
usemtl DefaultMaterial
f  1//1 2//1 3//1
f  3//1 2//1 4//2
f  3//3 4//3 5//3
f  3//3 5//3 6//4
f  6//5 5//5 7//5
f  6//5 7//5 8//6
f  8//7 7//7 9//7
f  8//7 9//7 10//8
f  10//9 9//9 11//9
f  10//9 11//9 12//10
f  12//11 11//11 13//11
f  12//11 13//11 14//12
f  14//13 13//13 15//13
f  14//13 15//13 16//14
f  16//15 15//15 17//15
f  16//15 17//15 18//16
f  18//17 17//17 19//17
f  18//17 19//17 20//18
f  20//19 19//19 21//19
f  20//19 21//19 22//20
f  22//21 21//21 23//21
f  22//21 23//21 24//22
f  24//23 23//23 25//23
f  24//23 25//23 26//24
f  26//25 25//25 27//25
f  26//25 27//25 28//26
f  28//27 27//27 29//27
f  28//27 29//27 30//28
f  30//29 29//29 31//29
f  30//29 31//29 32//30
f  32//31 31//31 33//31
f  32//31 33//31 34//32
f  34//33 33//33 35//33
f  34//33 35//33 36//34
f  36//35 35//35 37//35
f  36//35 37//35 38//36
f  38//37 37//37 39//37
f  38//37 39//37 40//38
f  40//39 39//39 41//39
f  40//39 41//39 42//40
f  42//41 41//41 43//41
f  42//41 43//41 44//42
f  44//43 43//43 45//43
f  44//43 45//43 46//44
f  46//45 45//45 47//45
f  46//45 47//45 48//46
f  49//47 2//47 50//47
f  50//47 2//47 1//47
f  51//48 49//48 52//48
f  52//48 49//48 50//48
f  53//49 51//49 54//49
f  54//49 51//49 52//50
f  47//51 53//51 48//51
f  48//51 53//51 54//51
f  48//52 54//52 46//52
f  46//52 54//52 44//52
f  44//52 54//52 42//52
f  42//52 54//52 40//53
f  40//53 54//52 38//54
f  38//54 54//52 36//55
f  36//55 54//52 34//56
f  34//56 54//52 32//57
f  32//57 54//52 30//58
f  30//58 54//52 28//59
f  28//59 54//52 52//60
f  28//59 52//60 26//61
f  26//61 52//60 24//62
f  24//62 52//60 22//63
f  22//63 52//60 20//64
f  20//64 52//60 18//65
f  18//65 52//60 16//66
f  16//66 52//60 50//67
f  16//66 50//67 14//68
f  14//68 50//67 12//69
f  12//69 50//67 10//70
f  10//70 50//67 8//71
f  8//71 50//67 6//72
f  6//72 50//67 3//73
f  3//73 50//67 1//74
f  47//75 45//75 53//75
f  53//75 45//75 43//75
f  53//75 43//75 41//75
f  41//75 39//76 53//75
f  53//75 39//76 37//77
f  53//75 37//77 35//78
f  35//78 33//79 53//75
f  53//75 33//79 31//80
f  53//75 31//80 29//81
f  29//81 27//82 53//75
f  53//75 27//82 51//83
f  51//83 27//82 25//84
f  51//83 25//84 23//85
f  23//85 21//86 51//83
f  51//83 21//86 19//87
f  51//83 19//87 17//88
f  17//88 15//89 51//83
f  51//83 15//89 49//90
f  49//90 15//89 13//91
f  49//90 13//91 11//92
f  11//92 9//93 49//90
f  49//90 9//93 7//94
f  49//90 7//94 5//95
f  5//95 4//96 49//90
f  49//90 4//96 2//97
f  55//98 56//98 57//98
f  57//98 56//98 58//98
f  59//99 55//99 60//99
f  60//99 55//99 57//99
f  61//100 59//100 62//100
f  62//100 59//100 60//100
f  56//101 61//101 58//101
f  58//101 61//101 62//101
f  62//102 60//102 58//102
f  58//102 60//102 57//102
f  56//103 55//103 61//103
f  61//103 55//103 59//103

