# File produced by Open Asset Import Library (http://www.assimp.sf.net)
# (assimp v3.1.187496374)

mtllib player_circle.obj.mtl

# 204 vertex positions
v  -0.499052 0.25 -0.0307805
v  -0.499052 -0.25 -0.0307805
v  -0.5 0.25 1.44499e-16
v  -0.5 -0.25 3.34768e-17
v  -0.499052 0.25 0.0307805
v  -0.499052 -0.25 0.0307805
v  -0.49621 0.25 0.0614441
v  -0.49621 -0.25 0.0614441
v  -0.491487 0.25 0.0918748
v  -0.491487 -0.25 0.0918748
v  -0.484898 0.25 0.121957
v  -0.484898 -0.25 0.121957
v  -0.476471 0.25 0.151576
v  -0.476471 -0.25 0.151576
v  -0.466236 0.25 0.180621
v  -0.466236 -0.25 0.180621
v  -0.454233 0.25 0.20898
v  -0.454233 -0.25 0.20898
v  -0.440506 0.25 0.236547
v  -0.440506 -0.25 0.236547
v  -0.425109 0.25 0.263216
v  -0.425109 -0.25 0.263216
v  -0.408098 0.25 0.288887
v  -0.408098 -0.25 0.288887
v  -0.38954 0.25 0.313462
v  -0.38954 -0.25 0.313462
v  -0.369504 0.25 0.336848
v  -0.369504 -0.25 0.336848
v  -0.348067 0.25 0.358956
v  -0.348067 -0.25 0.358956
v  -0.325309 0.25 0.379702
v  -0.325309 -0.25 0.379702
v  -0.301317 0.25 0.399009
v  -0.301317 -0.25 0.399009
v  -0.276182 0.25 0.416801
v  -0.276182 -0.25 0.416801
v  -0.25 0.25 0.433013
v  -0.25 -0.25 0.433013
v  -0.222869 0.25 0.447582
v  -0.222869 -0.25 0.447582
v  -0.194893 0.25 0.460453
v  -0.194893 -0.25 0.460453
v  -0.166177 0.25 0.471577
v  -0.166177 -0.25 0.471577
v  -0.136831 0.25 0.480913
v  -0.136831 -0.25 0.480913
v  -0.106967 0.25 0.488424
v  -0.106967 -0.25 0.488424
v  -0.0766958 0.25 0.494083
v  -0.0766958 -0.25 0.494083
v  -0.0461342 0.25 0.497867
v  -0.0461342 -0.25 0.497867
v  -0.0153975 0.25 0.499763
v  -0.0153975 -0.25 0.499763
v  0.0153975 0.25 0.499763
v  0.0153975 -0.25 0.499763
v  0.0461342 0.25 0.497867
v  0.0461342 -0.25 0.497867
v  0.0766958 0.25 0.494083
v  0.0766958 -0.25 0.494083
v  0.106967 0.25 0.488424
v  0.106967 -0.25 0.488424
v  0.136831 0.25 0.480913
v  0.136831 -0.25 0.480913
v  0.166177 0.25 0.471577
v  0.166177 -0.25 0.471577
v  0.194893 0.25 0.460453
v  0.194893 -0.25 0.460453
v  0.222869 0.25 0.447582
v  0.222869 -0.25 0.447582
v  0.25 0.25 0.433013
v  0.25 -0.25 0.433013
v  0.276182 0.25 0.416801
v  0.276182 -0.25 0.416801
v  0.301317 0.25 0.399009
v  0.301317 -0.25 0.399009
v  0.325309 0.25 0.379702
v  0.325309 -0.25 0.379702
v  0.348067 0.25 0.358956
v  0.348067 -0.25 0.358956
v  0.369504 0.25 0.336848
v  0.369504 -0.25 0.336848
v  0.38954 0.25 0.313462
v  0.38954 -0.25 0.313462
v  0.408098 0.25 0.288887
v  0.408098 -0.25 0.288887
v  0.425109 0.25 0.263216
v  0.425109 -0.25 0.263216
v  0.440506 0.25 0.236547
v  0.440506 -0.25 0.236547
v  0.454233 0.25 0.20898
v  0.454233 -0.25 0.20898
v  0.466236 0.25 0.180621
v  0.466236 -0.25 0.180621
v  0.476471 0.25 0.151576
v  0.476471 -0.25 0.151576
v  0.484898 0.25 0.121957
v  0.484898 -0.25 0.121957
v  0.491487 0.25 0.0918748
v  0.491487 -0.25 0.0918748
v  0.49621 0.25 0.0614441
v  0.49621 -0.25 0.0614441
v  0.499052 0.25 0.0307805
v  0.499052 -0.25 0.0307805
v  0.5 0.25 2.77556e-17
v  0.5 -0.25 -8.32667e-17
v  0.499052 0.25 -0.0307805
v  0.499052 -0.25 -0.0307805
v  0.49621 0.25 -0.0614441
v  0.49621 -0.25 -0.0614441
v  0.491487 0.25 -0.0918748
v  0.491487 -0.25 -0.0918748
v  0.484898 0.25 -0.121957
v  0.484898 -0.25 -0.121957
v  0.476471 0.25 -0.151576
v  0.476471 -0.25 -0.151576
v  0.466236 0.25 -0.180621
v  0.466236 -0.25 -0.180621
v  0.454233 0.25 -0.20898
v  0.454233 -0.25 -0.20898
v  0.440506 0.25 -0.236547
v  0.440506 -0.25 -0.236547
v  0.425109 0.25 -0.263216
v  0.425109 -0.25 -0.263216
v  0.408098 0.25 -0.288887
v  0.408098 -0.25 -0.288887
v  0.38954 0.25 -0.313462
v  0.38954 -0.25 -0.313462
v  0.369504 0.25 -0.336848
v  0.369504 -0.25 -0.336848
v  0.348067 0.25 -0.358956
v  0.348067 -0.25 -0.358956
v  0.325309 0.25 -0.379702
v  0.325309 -0.25 -0.379702
v  0.301317 0.25 -0.399009
v  0.301317 -0.25 -0.399009
v  0.276182 0.25 -0.416801
v  0.276182 -0.25 -0.416801
v  0.25 0.25 -0.433013
v  0.25 -0.25 -0.433013
v  0.222869 0.25 -0.447582
v  0.222869 -0.25 -0.447582
v  0.194893 0.25 -0.460453
v  0.194893 -0.25 -0.460453
v  0.166177 0.25 -0.471577
v  0.166177 -0.25 -0.471577
v  0.136831 0.25 -0.480913
v  0.136831 -0.25 -0.480913
v  0.106967 0.25 -0.488424
v  0.106967 -0.25 -0.488424
v  0.0766958 0.25 -0.494083
v  0.0766958 -0.25 -0.494083
v  0.0461342 0.25 -0.497867
v  0.0461342 -0.25 -0.497867
v  0.0153975 0.25 -0.499763
v  0.0153975 -0.25 -0.499763
v  -0.0153975 0.25 -0.499763
v  -0.0153975 -0.25 -0.499763
v  -0.0461342 0.25 -0.497867
v  -0.0461342 -0.25 -0.497867
v  -0.0766958 0.25 -0.494083
v  -0.0766958 -0.25 -0.494083
v  -0.106967 0.25 -0.488424
v  -0.106967 -0.25 -0.488424
v  -0.136831 0.25 -0.480913
v  -0.136831 -0.25 -0.480913
v  -0.166177 0.25 -0.471577
v  -0.166177 -0.25 -0.471577
v  -0.194893 0.25 -0.460453
v  -0.194893 -0.25 -0.460453
v  -0.222869 0.25 -0.447582
v  -0.222869 -0.25 -0.447582
v  -0.25 0.25 -0.433013
v  -0.25 -0.25 -0.433013
v  -0.276182 0.25 -0.416801
v  -0.276182 -0.25 -0.416801
v  -0.301317 0.25 -0.399009
v  -0.301317 -0.25 -0.399009
v  -0.325309 0.25 -0.379702
v  -0.325309 -0.25 -0.379702
v  -0.348067 0.25 -0.358956
v  -0.348067 -0.25 -0.358956
v  -0.369504 0.25 -0.336848
v  -0.369504 -0.25 -0.336848
v  -0.38954 0.25 -0.313462
v  -0.38954 -0.25 -0.313462
v  -0.408098 0.25 -0.288887
v  -0.408098 -0.25 -0.288887
v  -0.425109 0.25 -0.263216
v  -0.425109 -0.25 -0.263216
v  -0.440506 0.25 -0.236547
v  -0.440506 -0.25 -0.236547
v  -0.454233 0.25 -0.20898
v  -0.454233 -0.25 -0.20898
v  -0.466236 0.25 -0.180621
v  -0.466236 -0.25 -0.180621
v  -0.476471 0.25 -0.151576
v  -0.476471 -0.25 -0.151576
v  -0.484898 0.25 -0.121957
v  -0.484898 -0.25 -0.121957
v  -0.491487 0.25 -0.0918748
v  -0.491487 -0.25 -0.0918748
v  -0.49621 0.25 -0.0614441
v  -0.49621 -0.25 -0.0614441

# 0 UV coordinates

# 173 vertex normals
vn -0.999526 6.62419e-18 -0.0307951
vn -0.999526 6.83788e-18 -0.0307951
vn -0.999526 -6.83788e-18 0.0307951
vn -0.999526 -6.62419e-18 0.0307951
vn -0.995734 -1.98475e-17 0.0922684
vn -0.995734 -2.04877e-17 0.0922684
vn -0.988165 -3.40598e-17 0.153392
vn -0.976848 -4.75027e-17 0.213933
vn -0.976848 -5.34405e-17 0.213933
vn -0.961826 -6.83611e-17 0.273663
vn -0.961826 -7.59567e-17 0.273663
vn -0.943154 -9.2247e-17 0.332355
vn -0.943154 -7.37976e-17 0.332355
vn -0.920906 -8.65499e-17 0.389786
vn -0.895163 -9.89738e-17 0.445738
vn -0.866025 -1.11022e-16 0.5
vn -0.833602 -1.2265e-16 0.552365
vn -0.798017 -1.33812e-16 0.602635
vn -0.798017 -6.69059e-17 0.602635
vn -0.759405 -7.22331e-17 0.650618
vn -0.759405 -2.16699e-16 0.650618
vn -0.717912 -2.31859e-16 0.696134
vn -0.673696 -2.46139e-16 0.739009
vn -0.673696 -1.64093e-16 0.739009
vn -0.626924 -1.72991e-16 0.779081
vn -0.577774 -1.81232e-16 0.816197
vn -0.577774 -2.71848e-16 0.816197
vn -0.526432 -2.83179e-16 0.850217
vn -0.526432 -1.88786e-16 0.850217
vn -0.473094 -1.95624e-16 0.881012
vn -0.473094 -2.93436e-16 0.881012
vn -0.41796 -3.0258e-16 0.908465
vn -0.41796 -2.0172e-16 0.908465
vn -0.361242 -2.0705e-16 0.932472
vn -0.303153 -2.11596e-16 0.952942
vn -0.303153 -3.17393e-16 0.952942
vn -0.243914 -3.23007e-16 0.969797
vn -0.18375 -3.27396e-16 0.982973
vn -0.122888 -3.30542e-16 0.99242
vn -0.0615609 -3.32435e-16 0.998103
vn 0 -3.33067e-16 1
vn 0.0615609 -3.32435e-16 0.998103
vn 0.0615609 -2.21623e-16 0.998103
vn 0.122888 -2.20362e-16 0.99242
vn 0.122888 -3.30542e-16 0.99242
vn 0.18375 -3.27396e-16 0.982973
vn 0.243914 -3.23007e-16 0.969797
vn 0.303153 -3.17393e-16 0.952942
vn 0.361242 -3.10576e-16 0.932472
vn 0.361242 -2.0705e-16 0.932472
vn 0.41796 -2.0172e-16 0.908465
vn 0.41796 -3.0258e-16 0.908465
vn 0.473094 -2.93436e-16 0.881012
vn 0.473094 -1.95624e-16 0.881012
vn 0.526432 -1.88786e-16 0.850217
vn 0.526432 -2.83179e-16 0.850217
vn 0.577774 -2.71848e-16 0.816197
vn 0.626924 -2.59486e-16 0.779081
vn 0.626924 -1.72991e-16 0.779081
vn 0.673696 -1.64093e-16 0.739009
vn 0.673696 -2.46139e-16 0.739009
vn 0.717912 -2.31859e-16 0.696134
vn 0.759405 -2.16699e-16 0.650618
vn 0.759405 -1.44466e-16 0.650618
vn 0.798017 -1.33812e-16 0.602635
vn 0.833602 -1.2265e-16 0.552365
vn 0.866025 -1.11022e-16 0.5
vn 0.895163 -9.89738e-17 0.445738
vn 0.920906 -8.65499e-17 0.389786
vn 0.943154 -7.37976e-17 0.332355
vn 0.943154 -9.2247e-17 0.332355
vn 0.961826 -7.59567e-17 0.273663
vn 0.961826 -6.83611e-17 0.273663
vn 0.976848 -5.34405e-17 0.213933
vn 0.988165 -3.83173e-17 0.153392
vn 0.988165 -3.40598e-17 0.153392
vn 0.995734 -2.04877e-17 0.0922684
vn 0.995734 -1.98475e-17 0.0922684
vn 0.999526 -6.62419e-18 0.0307951
vn 0.999526 -6.83788e-18 0.0307951
vn 0.999526 6.83788e-18 -0.0307951
vn 0.999526 6.62419e-18 -0.0307951
vn 0.995734 1.98475e-17 -0.0922684
vn 0.995734 2.04877e-17 -0.0922684
vn 0.988165 3.40598e-17 -0.153392
vn 0.976848 4.75027e-17 -0.213933
vn 0.976848 5.34405e-17 -0.213933
vn 0.961826 6.83611e-17 -0.273663
vn 0.961826 6.07654e-17 -0.273663
vn 0.943154 7.37976e-17 -0.332355
vn 0.920906 8.65499e-17 -0.389786
vn 0.895163 9.89738e-17 -0.445738
vn 0.866025 1.11022e-16 -0.5
vn 0.833602 1.2265e-16 -0.552365
vn 0.798017 1.33812e-16 -0.602635
vn 0.798017 6.69059e-17 -0.602635
vn 0.759405 7.22331e-17 -0.650618
vn 0.759405 2.16699e-16 -0.650618
vn 0.717912 2.31859e-16 -0.696134
vn 0.673696 2.46139e-16 -0.739009
vn 0.673696 1.64093e-16 -0.739009
vn 0.626924 1.72991e-16 -0.779081
vn 0.626924 2.59486e-16 -0.779081
vn 0.577774 2.71848e-16 -0.816197
vn 0.526432 2.83179e-16 -0.850217
vn 0.473094 2.93436e-16 -0.881012
vn 0.41796 3.0258e-16 -0.908465
vn 0.41796 2.0172e-16 -0.908465
vn 0.361242 2.0705e-16 -0.932472
vn 0.361242 3.10576e-16 -0.932472
vn 0.303153 3.17393e-16 -0.952942
vn 0.243914 3.23007e-16 -0.969797
vn 0.18375 3.27396e-16 -0.982973
vn 0.122888 3.30542e-16 -0.99242
vn 0.0615609 3.32435e-16 -0.998103
vn 0 3.33067e-16 -1
vn -0.0615609 3.32435e-16 -0.998103
vn -0.122888 3.30542e-16 -0.99242
vn -0.18375 3.27396e-16 -0.982973
vn -0.243914 3.23007e-16 -0.969797
vn -0.303153 3.17393e-16 -0.952942
vn -0.303153 2.11596e-16 -0.952942
vn -0.361242 2.0705e-16 -0.932472
vn -0.41796 2.0172e-16 -0.908465
vn -0.473094 1.95624e-16 -0.881012
vn -0.526432 1.88786e-16 -0.850217
vn -0.526432 2.83179e-16 -0.850217
vn -0.577774 2.71848e-16 -0.816197
vn -0.577774 1.81232e-16 -0.816197
vn -0.626924 1.72991e-16 -0.779081
vn -0.673696 1.64093e-16 -0.739009
vn -0.673696 2.46139e-16 -0.739009
vn -0.717912 2.31859e-16 -0.696134
vn -0.759405 2.16699e-16 -0.650618
vn -0.759405 7.22331e-17 -0.650618
vn -0.798017 6.69059e-17 -0.602635
vn -0.833602 6.13248e-17 -0.552365
vn -0.833602 1.2265e-16 -0.552365
vn -0.866025 1.11022e-16 -0.5
vn -0.866025 8.32667e-17 -0.5
vn -0.895163 7.42303e-17 -0.445738
vn -0.895163 9.89738e-17 -0.445738
vn -0.920906 8.65499e-17 -0.389786
vn -0.943154 7.37976e-17 -0.332355
vn -0.961826 6.07654e-17 -0.273663
vn -0.961826 6.83611e-17 -0.273663
vn -0.976848 5.34405e-17 -0.213933
vn -0.988165 3.83173e-17 -0.153392
vn -0.988165 3.40598e-17 -0.153392
vn -0.995734 2.04877e-17 -0.0922684
vn -0.995734 1.98475e-17 -0.0922684
vn 0 1 0
vn 1.97695e-31 1 9.12094e-16
vn -1.93157e-31 1 9.12094e-16
vn 2.46093e-31 1 1.00686e-15
vn -2.53761e-31 1 1.00686e-15
vn -1.22662e-31 1 1.43765e-15
vn -2.64856e-31 1 1.43765e-15
vn 1.08413e-31 1 9.12094e-16
vn 9.01397e-32 1 9.12094e-16
vn 2.46093e-31 1 2.01371e-15
vn 1.26881e-31 1 2.01371e-15
vn 1.22662e-31 1 1.43765e-15
vn 1.32428e-31 1 1.43765e-15
vn 0 -1 0
vn -2.16827e-31 -1 -1.82419e-15
vn -2.06034e-31 -1 -1.82419e-15
vn -2.45323e-31 -1 -2.87531e-15
vn -5.29713e-31 -1 -2.87531e-15
vn -4.92186e-31 -1 -2.01371e-15
vn 4.44082e-31 -1 -2.01371e-15
vn 2.45323e-31 -1 -2.87531e-15
vn 2.64856e-31 -1 -2.87531e-15

# Mesh '<STL_BINARY>' with 404 faces
g <STL_BINARY>
usemtl DefaultMaterial
f  1//1 2//1 3//1
f  3//1 2//1 4//2
f  3//3 4//3 5//3
f  5//3 4//3 6//4
f  5//5 6//5 7//5
f  7//5 6//5 8//6
f  7//7 8//7 9//7
f  9//7 8//7 10//7
f  9//8 10//8 11//8
f  11//8 10//8 12//9
f  11//10 12//10 13//10
f  13//10 12//10 14//11
f  13//12 14//12 15//12
f  15//12 14//12 16//13
f  15//14 16//14 17//14
f  17//14 16//14 18//14
f  17//15 18//15 19//15
f  19//15 18//15 20//15
f  19//16 20//16 21//16
f  21//16 20//16 22//16
f  21//17 22//17 23//17
f  23//17 22//17 24//17
f  23//18 24//18 25//18
f  25//18 24//18 26//19
f  25//20 26//20 27//20
f  27//20 26//20 28//21
f  27//22 28//22 29//22
f  29//22 28//22 30//22
f  29//23 30//23 31//23
f  31//23 30//23 32//24
f  31//25 32//25 33//25
f  33//25 32//25 34//25
f  33//26 34//26 35//26
f  35//26 34//26 36//27
f  35//28 36//28 37//28
f  37//28 36//28 38//29
f  37//30 38//30 39//30
f  39//30 38//30 40//31
f  39//32 40//32 41//32
f  41//32 40//32 42//33
f  41//34 42//34 43//34
f  43//34 42//34 44//34
f  43//35 44//35 45//35
f  45//35 44//35 46//36
f  45//37 46//37 47//37
f  47//37 46//37 48//37
f  47//38 48//38 49//38
f  49//38 48//38 50//38
f  49//39 50//39 51//39
f  51//39 50//39 52//39
f  51//40 52//40 53//40
f  53//40 52//40 54//40
f  53//41 54//41 55//41
f  55//41 54//41 56//41
f  55//42 56//42 57//42
f  57//42 56//42 58//43
f  57//44 58//44 59//44
f  59//44 58//44 60//45
f  59//46 60//46 61//46
f  61//46 60//46 62//46
f  61//47 62//47 63//47
f  63//47 62//47 64//47
f  63//48 64//48 65//48
f  65//48 64//48 66//48
f  65//49 66//49 67//49
f  67//49 66//49 68//50
f  67//51 68//51 69//51
f  69//51 68//51 70//52
f  69//53 70//53 71//53
f  71//53 70//53 72//54
f  71//55 72//55 73//55
f  73//55 72//55 74//56
f  73//57 74//57 75//57
f  75//57 74//57 76//57
f  75//58 76//58 77//58
f  77//58 76//58 78//59
f  77//60 78//60 79//60
f  79//60 78//60 80//61
f  79//62 80//62 81//62
f  81//62 80//62 82//62
f  81//63 82//63 83//63
f  83//63 82//63 84//64
f  83//65 84//65 85//65
f  85//65 84//65 86//65
f  85//66 86//66 87//66
f  87//66 86//66 88//66
f  87//67 88//67 89//67
f  89//67 88//67 90//67
f  89//68 90//68 91//68
f  91//68 90//68 92//68
f  91//69 92//69 93//69
f  93//69 92//69 94//69
f  93//70 94//70 95//70
f  95//70 94//70 96//71
f  95//72 96//72 97//72
f  97//72 96//72 98//73
f  97//74 98//74 99//74
f  99//74 98//74 100//74
f  99//75 100//75 101//75
f  101//75 100//75 102//76
f  101//77 102//77 103//77
f  103//77 102//77 104//78
f  103//79 104//79 105//79
f  105//79 104//79 106//80
f  105//81 106//81 107//81
f  107//81 106//81 108//82
f  107//83 108//83 109//83
f  109//83 108//83 110//84
f  109//85 110//85 111//85
f  111//85 110//85 112//85
f  111//86 112//86 113//86
f  113//86 112//86 114//87
f  113//88 114//88 115//88
f  115//88 114//88 116//89
f  115//90 116//90 117//90
f  117//90 116//90 118//90
f  117//91 118//91 119//91
f  119//91 118//91 120//91
f  119//92 120//92 121//92
f  121//92 120//92 122//92
f  121//93 122//93 123//93
f  123//93 122//93 124//93
f  123//94 124//94 125//94
f  125//94 124//94 126//94
f  125//95 126//95 127//95
f  127//95 126//95 128//96
f  127//97 128//97 129//97
f  129//97 128//97 130//98
f  129//99 130//99 131//99
f  131//99 130//99 132//99
f  131//100 132//100 133//100
f  133//100 132//100 134//101
f  133//102 134//102 135//102
f  135//102 134//102 136//103
f  135//104 136//104 137//104
f  137//104 136//104 138//104
f  137//105 138//105 139//105
f  139//105 138//105 140//105
f  139//106 140//106 141//106
f  141//106 140//106 142//106
f  141//107 142//107 143//107
f  143//107 142//107 144//108
f  143//109 144//109 145//109
f  145//109 144//109 146//110
f  145//111 146//111 147//111
f  147//111 146//111 148//111
f  147//112 148//112 149//112
f  149//112 148//112 150//112
f  149//113 150//113 151//113
f  151//113 150//113 152//113
f  151//114 152//114 153//114
f  153//114 152//114 154//114
f  153//115 154//115 155//115
f  155//115 154//115 156//115
f  155//116 156//116 157//116
f  157//116 156//116 158//116
f  157//117 158//117 159//117
f  159//117 158//117 160//117
f  159//118 160//118 161//118
f  161//118 160//118 162//118
f  161//119 162//119 163//119
f  163//119 162//119 164//119
f  163//120 164//120 165//120
f  165//120 164//120 166//120
f  165//121 166//121 167//121
f  167//121 166//121 168//122
f  167//123 168//123 169//123
f  169//123 168//123 170//123
f  169//124 170//124 171//124
f  171//124 170//124 172//124
f  171//125 172//125 173//125
f  173//125 172//125 174//125
f  173//126 174//126 175//126
f  175//126 174//126 176//127
f  175//128 176//128 177//128
f  177//128 176//128 178//129
f  177//130 178//130 179//130
f  179//130 178//130 180//130
f  179//131 180//131 181//131
f  181//131 180//131 182//132
f  181//133 182//133 183//133
f  183//133 182//133 184//133
f  183//134 184//134 185//134
f  185//134 184//134 186//135
f  185//136 186//136 187//136
f  187//136 186//136 188//136
f  187//137 188//137 189//137
f  189//137 188//137 190//138
f  189//139 190//139 191//139
f  191//139 190//139 192//140
f  191//141 192//141 193//141
f  193//141 192//141 194//142
f  193//143 194//143 195//143
f  195//143 194//143 196//143
f  195//144 196//144 197//144
f  197//144 196//144 198//144
f  197//145 198//145 199//145
f  199//145 198//145 200//146
f  199//147 200//147 201//147
f  201//147 200//147 202//147
f  201//148 202//148 203//148
f  203//148 202//148 204//149
f  203//150 204//150 1//150
f  1//150 204//150 2//151
f  5//152 103//152 3//152
f  103//152 5//152 101//152
f  101//152 5//152 7//152
f  3//152 103//152 105//152
f  3//152 105//152 1//152
f  1//152 105//152 107//152
f  1//152 107//152 203//152
f  203//152 107//152 109//152
f  203//152 109//152 201//153
f  201//153 109//152 111//154
f  201//153 111//154 199//152
f  199//152 111//154 113//152
f  199//152 113//152 197//152
f  197//152 113//152 115//152
f  197//152 115//152 195//152
f  195//152 115//152 117//152
f  195//152 117//152 193//152
f  193//152 117//152 119//152
f  193//152 119//152 191//155
f  191//155 119//152 121//156
f  191//155 121//156 189//152
f  189//152 121//156 123//152
f  189//152 123//152 187//152
f  187//152 123//152 125//152
f  187//152 125//152 185//152
f  185//152 125//152 127//152
f  185//152 127//152 183//152
f  183//152 127//152 129//152
f  183//152 129//152 181//152
f  181//152 129//152 131//152
f  181//152 131//152 179//152
f  179//152 131//152 133//152
f  179//152 133//152 177//157
f  177//157 133//152 135//158
f  177//157 135//158 175//152
f  175//152 135//158 137//152
f  175//152 137//152 173//152
f  173//152 137//152 139//152
f  173//152 139//152 171//152
f  171//152 139//152 141//152
f  171//152 141//152 169//152
f  169//152 141//152 143//152
f  169//152 143//152 167//152
f  167//152 143//152 145//152
f  167//152 145//152 165//152
f  165//152 145//152 147//152
f  165//152 147//152 163//152
f  163//152 147//152 149//152
f  163//152 149//152 161//152
f  161//152 149//152 151//152
f  161//152 151//152 159//152
f  159//152 151//152 153//152
f  159//152 153//152 157//152
f  157//152 153//152 155//152
f  101//152 7//152 99//159
f  99//159 7//152 9//160
f  99//159 9//160 97//152
f  97//152 9//160 11//152
f  97//152 11//152 95//152
f  95//152 11//152 13//152
f  95//152 13//152 93//152
f  93//152 13//152 15//152
f  93//152 15//152 91//152
f  91//152 15//152 17//152
f  91//152 17//152 89//161
f  89//161 17//152 19//162
f  89//161 19//162 87//152
f  87//152 19//162 21//152
f  87//152 21//152 85//152
f  85//152 21//152 23//152
f  85//152 23//152 83//152
f  83//152 23//152 25//152
f  83//152 25//152 81//152
f  81//152 25//152 27//152
f  81//152 27//152 79//152
f  79//152 27//152 29//152
f  79//152 29//152 77//152
f  77//152 29//152 31//152
f  77//152 31//152 75//163
f  75//163 31//152 33//164
f  75//163 33//164 73//152
f  73//152 33//164 35//152
f  73//152 35//152 71//152
f  71//152 35//152 37//152
f  71//152 37//152 69//152
f  69//152 37//152 39//152
f  69//152 39//152 67//152
f  67//152 39//152 41//152
f  67//152 41//152 65//152
f  65//152 41//152 43//152
f  65//152 43//152 63//152
f  63//152 43//152 45//152
f  63//152 45//152 61//152
f  61//152 45//152 47//152
f  61//152 47//152 59//152
f  59//152 47//152 49//152
f  59//152 49//152 57//152
f  57//152 49//152 51//152
f  57//152 51//152 55//152
f  55//152 51//152 53//152
f  2//165 108//165 4//165
f  108//165 2//165 110//165
f  110//165 2//165 204//165
f  4//165 108//165 106//165
f  4//165 106//165 6//165
f  6//165 106//165 104//165
f  6//165 104//165 8//165
f  8//165 104//165 102//165
f  8//165 102//165 10//166
f  10//166 102//165 100//167
f  10//166 100//167 12//165
f  12//165 100//167 98//165
f  12//165 98//165 14//165
f  14//165 98//165 96//165
f  14//165 96//165 16//165
f  16//165 96//165 94//165
f  16//165 94//165 18//165
f  18//165 94//165 92//165
f  18//165 92//165 20//165
f  20//165 92//165 90//165
f  20//165 90//165 22//165
f  22//165 90//165 88//165
f  22//165 88//165 24//165
f  24//165 88//165 86//165
f  24//165 86//165 26//165
f  26//165 86//165 84//165
f  26//165 84//165 28//165
f  28//165 84//165 82//165
f  28//165 82//165 30//165
f  30//165 82//165 80//165
f  30//165 80//165 32//165
f  32//165 80//165 78//165
f  32//165 78//165 34//168
f  34//168 78//165 76//169
f  34//168 76//169 36//165
f  36//165 76//169 74//165
f  36//165 74//165 38//165
f  38//165 74//165 72//165
f  38//165 72//165 40//165
f  40//165 72//165 70//165
f  40//165 70//165 42//165
f  42//165 70//165 68//165
f  42//165 68//165 44//165
f  44//165 68//165 66//165
f  44//165 66//165 46//165
f  46//165 66//165 64//165
f  46//165 64//165 48//165
f  48//165 64//165 62//165
f  48//165 62//165 50//165
f  50//165 62//165 60//165
f  50//165 60//165 52//165
f  52//165 60//165 58//165
f  52//165 58//165 54//165
f  54//165 58//165 56//165
f  110//165 204//165 112//165
f  112//165 204//165 202//165
f  112//165 202//165 114//165
f  114//165 202//165 200//165
f  114//165 200//165 116//165
f  116//165 200//165 198//165
f  116//165 198//165 118//165
f  118//165 198//165 196//165
f  118//165 196//165 120//165
f  120//165 196//165 194//165
f  120//165 194//165 122//170
f  122//170 194//165 192//171
f  122//170 192//171 124//165
f  124//165 192//171 190//165
f  124//165 190//165 126//165
f  126//165 190//165 188//165
f  126//165 188//165 128//165
f  128//165 188//165 186//165
f  128//165 186//165 130//165
f  130//165 186//165 184//165
f  130//165 184//165 132//165
f  132//165 184//165 182//165
f  132//165 182//165 134//165
f  134//165 182//165 180//165
f  134//165 180//165 136//172
f  136//172 180//165 178//173
f  136//172 178//173 138//165
f  138//165 178//173 176//165
f  138//165 176//165 140//165
f  140//165 176//165 174//165
f  140//165 174//165 142//165
f  142//165 174//165 172//165
f  142//165 172//165 144//165
f  144//165 172//165 170//165
f  144//165 170//165 146//165
f  146//165 170//165 168//165
f  146//165 168//165 148//165
f  148//165 168//165 166//165
f  148//165 166//165 150//165
f  150//165 166//165 164//165
f  150//165 164//165 152//165
f  152//165 164//165 162//165
f  152//165 162//165 154//165
f  154//165 162//165 160//165
f  154//165 160//165 156//165
f  156//165 160//165 158//165

