# File produced by Open Asset Import Library (http://www.assimp.sf.net)
# (assimp v3.1.187496374)

mtllib player_front.obj.mtl

# 36 vertex positions
v  -0.369621 -0.25 0.336719
v  -0.403039 -0.25 0.295904
v  -0.369621 0.25 0.336719
v  -0.403039 0.25 0.295904
v  -0.431971 -0.25 0.251796
v  -0.431971 0.25 0.251796
v  -0.456095 -0.25 0.204884
v  -0.456095 0.25 0.204884
v  -0.475142 -0.25 0.155693
v  -0.475142 0.25 0.155693
v  -0.4889 -0.25 0.104768
v  -0.4889 0.25 0.104768
v  -0.497217 0.25 0.0526771
v  -0.497217 -0.25 0.0526771
v  -0.5 0.25 2.20344e-17
v  -0.5 -0.25 -8.89879e-17
v  -0.497217 0.25 -0.0526771
v  -0.497217 -0.25 -0.0526771
v  -0.4889 0.25 -0.104768
v  -0.4889 -0.25 -0.104768
v  -0.475142 -0.25 -0.155693
v  -0.475142 0.25 -0.155693
v  -0.456095 -0.25 -0.204884
v  -0.456095 0.25 -0.204884
v  -0.431971 -0.25 -0.251796
v  -0.431971 0.25 -0.251796
v  -0.403039 -0.25 -0.295904
v  -0.403039 0.25 -0.295904
v  -0.369621 -0.25 -0.336719
v  -0.369621 0.25 -0.336719
v  -1.05197 -0.25 1.31023
v  -1.05197 0.25 1.31023
v  -4 -0.25 1.66533e-16
v  -4 0.25 2.77556e-16
v  -1.05197 -0.25 -1.31023
v  -1.05197 0.25 -1.31023

# 0 UV coordinates

# 62 vertex normals
vn 0.773738 7.03333e-17 -0.633506
vn 0.773738 1.39763e-16 -0.633506
vn 0.836174 1.21783e-16 -0.548464
vn 0.836174 1.2332e-16 -0.548464
vn 0.889304 1.01545e-16 -0.457317
vn 0.889304 9.86562e-17 -0.457317
vn 0.932535 8.01758e-17 -0.36108
vn 0.932535 7.81028e-17 -0.36108
vn 0.965386 5.79145e-17 -0.260824
vn 0.965386 6.57708e-17 -0.260824
vn 0.987493 3.93846e-17 -0.157665
vn 0.987493 3.50086e-17 -0.157665
vn 0.998608 1.1713e-17 -0.0527506
vn 0.998608 -1.1713e-17 0.0527506
vn 0.987493 -3.50086e-17 0.157665
vn 0.987493 -3.93846e-17 0.157665
vn 0.965386 -6.51538e-17 0.260824
vn 0.965386 -6.98815e-17 0.260824
vn 0.932535 -1.0022e-16 0.36108
vn 0.932535 -5.75494e-17 0.36108
vn 0.889304 -7.61585e-17 0.457317
vn 0.889304 -9.86562e-17 0.457317
vn 0.836174 -1.21783e-16 0.548464
vn 0.836174 -1.15099e-16 0.548464
vn 0.773738 -1.40667e-16 0.633506
vn 0.773738 -1.39763e-16 0.633506
vn 0.818879 0 0.573966
vn 0.818879 -1.86775e-16 0.573966
vn -0.406138 -2.02907e-16 0.913812
vn -0.406138 0 0.913812
vn -0.406138 0 -0.913812
vn 0.818879 1.27446e-16 -0.573966
vn 0.818879 0 -0.573966
vn 1.31327e-16 1 1.07525e-16
vn 1.47832e-16 1 9.69661e-17
vn -3.70995e-16 1 4.0088e-16
vn 2.16867e-16 1 8.39716e-17
vn 2.49836e-16 1 6.74996e-17
vn -2.37568e-18 1 1.85308e-16
vn 8.03234e-18 1 5.34113e-16
vn 0 1 0
vn -8.03234e-18 1 5.34113e-16
vn 1.69809e-18 1 2.08016e-16
vn -2.81066e-16 1 7.59371e-17
vn -2.43976e-16 1 9.4468e-17
vn 9.08863e-16 1 7.15947e-16
vn -1.47832e-16 1 9.69661e-17
vn -1.31327e-16 1 1.07525e-16
vn -1.50088e-16 -1 -1.22886e-16
vn -1.68951e-16 -1 -1.10818e-16
vn 8.85024e-16 -1 -7.28206e-16
vn -2.71084e-16 -1 -1.04964e-16
vn -3.12295e-16 -1 -8.43745e-17
vn -6.77593e-18 -1 -2.27083e-16
vn 0 -1 0
vn 1.60647e-17 -1 -1.06823e-15
vn -1.01721e-17 -1 -1.8895e-16
vn 2.49836e-16 -1 -6.74996e-17
vn 2.16867e-16 -1 -8.39716e-17
vn 1.90712e-16 -1 -9.80718e-17
vn 1.68951e-16 -1 -1.10818e-16
vn 1.50088e-16 -1 -1.22886e-16

# Mesh '<STL_BINARY>' with 68 faces
g <STL_BINARY>
usemtl DefaultMaterial
f  1//1 2//1 3//1
f  3//1 2//1 4//2
f  4//3 2//3 5//3
f  4//3 5//3 6//4
f  6//5 5//5 7//5
f  6//5 7//5 8//6
f  8//7 7//7 9//7
f  8//7 9//7 10//8
f  10//9 9//9 11//9
f  10//9 11//9 12//10
f  12//11 11//11 13//11
f  13//11 11//11 14//12
f  13//13 14//13 15//13
f  15//13 14//13 16//13
f  15//14 16//14 17//14
f  17//14 16//14 18//14
f  17//15 18//15 19//15
f  19//15 18//15 20//16
f  19//17 20//17 21//17
f  19//17 21//17 22//18
f  22//19 21//19 23//19
f  22//19 23//19 24//20
f  24//21 23//21 25//21
f  24//21 25//21 26//22
f  26//23 25//23 27//23
f  26//23 27//23 28//24
f  28//25 27//25 29//25
f  28//25 29//25 30//26
f  31//27 1//27 32//27
f  32//27 1//27 3//28
f  33//29 31//29 34//29
f  34//29 31//29 32//30
f  35//31 33//31 36//31
f  36//31 33//31 34//31
f  29//32 35//32 30//32
f  30//32 35//32 36//33
f  30//34 36//34 28//34
f  28//34 36//34 26//35
f  26//35 36//34 24//36
f  24//36 36//34 22//37
f  22//37 36//34 19//38
f  19//38 36//34 34//39
f  19//38 34//39 17//40
f  17//40 34//39 15//41
f  15//41 34//39 13//41
f  13//41 34//39 12//42
f  12//42 34//39 32//43
f  12//42 32//43 10//44
f  10//44 32//43 8//45
f  8//45 32//43 6//46
f  6//46 32//43 4//47
f  4//47 32//43 3//48
f  29//49 27//49 35//49
f  35//49 27//49 25//50
f  35//49 25//50 23//51
f  23//51 21//52 35//49
f  35//49 21//52 20//53
f  35//49 20//53 33//54
f  33//54 20//53 18//55
f  33//54 18//55 16//55
f  16//55 14//55 33//54
f  33//54 14//55 11//56
f  33//54 11//56 31//57
f  31//57 11//56 9//58
f  31//57 9//58 7//59
f  7//59 5//60 31//57
f  31//57 5//60 2//61
f  31//57 2//61 1//62

