# File produced by Open Asset Import Library (http://www.assimp.sf.net)
# (assimp v3.1.187496374)

mtllib enemy1_body1.obj.mtl

# 8 vertex positions
v  25 25 0
v  0 25 0
v  25 25 25
v  0 25 25
v  25 0 0
v  25 0 25
v  0 0 0
v  0 0 25

# 0 UV coordinates

# 6 vertex normals
vn 0 1 0
vn 1 0 0
vn 0 -1 0
vn -1 0 0
vn 0 0 1
vn 0 0 -1

# Mesh '<STL_BINARY>' with 12 faces
g <STL_BINARY>
usemtl DefaultMaterial
f  1//1 2//1 3//1
f  3//1 2//1 4//1
f  5//2 1//2 6//2
f  6//2 1//2 3//2
f  7//3 5//3 8//3
f  8//3 5//3 6//3
f  2//4 7//4 4//4
f  4//4 7//4 8//4
f  8//5 6//5 4//5
f  4//5 6//5 3//5
f  2//6 1//6 7//6
f  7//6 1//6 5//6

